<svg width="1450" height="371" viewBox="0 0 1450 371" fill="none" xmlns="http://www.w3.org/2000/svg">
<line x1="55.9648" y1="6.30371" x2="55.9649" y2="343.304" stroke="#C8C8C8"/>
<line x1="739.059" y1="6.30371" x2="739.059" y2="343.304" stroke="#C8C8C8"/>
<line x1="397.512" y1="6.30371" x2="397.512" y2="343.304" stroke="#C8C8C8"/>
<line x1="1080.6" y1="6.30371" x2="1080.6" y2="343.304" stroke="#C8C8C8"/>
<line x1="1308.3" y1="6.30371" x2="1308.3" y2="343.304" stroke="#C8C8C8"/>
<line x1="169.814" y1="6.30371" x2="169.814" y2="343.304" stroke="#C8C8C8"/>
<line x1="852.906" y1="6.30371" x2="852.906" y2="343.304" stroke="#C8C8C8"/>
<line x1="511.359" y1="6.30371" x2="511.359" y2="343.304" stroke="#C8C8C8"/>
<line x1="1422.15" y1="6.30371" x2="1422.15" y2="343.304" stroke="#C8C8C8"/>
<line x1="283.662" y1="6.30371" x2="283.662" y2="343.304" stroke="#C8C8C8"/>
<line x1="966.756" y1="6.30371" x2="966.756" y2="343.304" stroke="#C8C8C8"/>
<line x1="625.209" y1="6.30371" x2="625.209" y2="343.304" stroke="#C8C8C8"/>
<line x1="1194.45" y1="6.30371" x2="1194.45" y2="343.304" stroke="#C8C8C8"/>
<line x1="34.0703" y1="343.134" x2="1434.35" y2="343.134" stroke="#191C3D"/>
<line x1="34.0703" y1="275.672" x2="1434.35" y2="275.672" stroke="#C8C8C8"/>
<line x1="34.0703" y1="140.75" x2="1434.35" y2="140.75" stroke="#C8C8C8"/>
<line x1="34.0703" y1="208.211" x2="1434.35" y2="208.211" stroke="#C8C8C8"/>
<line x1="34.0703" y1="73.2881" x2="1434.35" y2="73.2881" stroke="#C8C8C8"/>
<line x1="34.0703" y1="5.82666" x2="1434.35" y2="5.82666" stroke="#C8C8C8"/>
<path d="M35.3725 340.772L97.9352 321.374L175.575 330.484L264.019 316.178L315.693 286.535L398.176 279.385L550.22 243.616L621.909 254.537L771.829 208.172L827.231 208.177L880.713 187.946L953.158 192.953L1013.93 173.451L1111.17 167.457L1206.27 119.98L1260.65 128.006L1311.26 92.1617L1352.74 81.9226L1393.39 45.4622L1435.69 21.8673" stroke="#CE2B2C" stroke-width="2.2"/>
<path d="M48.7171 367.724C48.7971 367.724 48.8638 367.754 48.9171 367.814C48.9771 367.867 49.0071 367.934 49.0071 368.014C49.0071 368.1 48.9771 368.17 48.9171 368.224C48.8638 368.277 48.7971 368.304 48.7171 368.304H44.9671C44.8804 368.304 44.8038 368.28 44.7371 368.234C44.6771 368.18 44.6471 368.104 44.6471 368.004C44.6471 367.93 44.6738 367.86 44.7271 367.794L47.0371 365.244C47.3971 364.857 47.6704 364.504 47.8571 364.184C48.0438 363.864 48.1371 363.547 48.1371 363.234C48.1371 362.934 48.0771 362.677 47.9571 362.464C47.8371 362.244 47.6604 362.074 47.4271 361.954C47.1938 361.834 46.9138 361.774 46.5871 361.774C46.2804 361.774 45.9938 361.85 45.7271 362.004C45.4671 362.15 45.2704 362.39 45.1371 362.724C45.1104 362.77 45.0738 362.814 45.0271 362.854C44.9871 362.887 44.9371 362.904 44.8771 362.904C44.8038 362.904 44.7338 362.877 44.6671 362.824C44.6004 362.77 44.5671 362.71 44.5671 362.644C44.5671 362.597 44.5804 362.55 44.6071 362.504C44.6338 362.457 44.6671 362.404 44.7071 362.344C44.8871 361.97 45.1504 361.687 45.4971 361.494C45.8504 361.3 46.2271 361.204 46.6271 361.204C47.0871 361.204 47.4738 361.29 47.7871 361.464C48.1071 361.63 48.3504 361.864 48.5171 362.164C48.6904 362.457 48.7771 362.8 48.7771 363.194C48.7771 363.434 48.7338 363.68 48.6471 363.934C48.5604 364.18 48.4238 364.444 48.2371 364.724C48.0504 365.004 47.8004 365.314 47.4871 365.654L45.5371 367.844L45.4371 367.724H48.7171ZM52.4309 368.404C51.8976 368.404 51.4509 368.244 51.0909 367.924C50.7309 367.604 50.4609 367.174 50.2809 366.634C50.1009 366.087 50.0109 365.477 50.0109 364.804C50.0109 364.124 50.1009 363.514 50.2809 362.974C50.4609 362.427 50.7309 361.997 51.0909 361.684C51.4509 361.364 51.8976 361.204 52.4309 361.204C52.9776 361.204 53.4276 361.364 53.7809 361.684C54.1409 361.997 54.4109 362.427 54.5909 362.974C54.7709 363.514 54.8609 364.124 54.8609 364.804C54.8609 365.477 54.7709 366.087 54.5909 366.634C54.4109 367.174 54.1409 367.604 53.7809 367.924C53.4276 368.244 52.9776 368.404 52.4309 368.404ZM52.4309 367.784C52.8243 367.784 53.1509 367.66 53.4109 367.414C53.6776 367.167 53.8776 366.82 54.0109 366.374C54.1509 365.92 54.2209 365.397 54.2209 364.804C54.2209 364.204 54.1509 363.68 54.0109 363.234C53.8776 362.78 53.6776 362.43 53.4109 362.184C53.1509 361.937 52.8243 361.814 52.4309 361.814C52.0443 361.814 51.7176 361.937 51.4509 362.184C51.1909 362.43 50.9909 362.78 50.8509 363.234C50.7176 363.68 50.6509 364.204 50.6509 364.804C50.6509 365.397 50.7176 365.92 50.8509 366.374C50.9909 366.82 51.1909 367.167 51.4509 367.414C51.7176 367.66 52.0443 367.784 52.4309 367.784ZM60.3382 367.724C60.4182 367.724 60.4849 367.754 60.5382 367.814C60.5982 367.867 60.6282 367.934 60.6282 368.014C60.6282 368.1 60.5982 368.17 60.5382 368.224C60.4849 368.277 60.4182 368.304 60.3382 368.304H56.5882C56.5015 368.304 56.4249 368.28 56.3582 368.234C56.2982 368.18 56.2682 368.104 56.2682 368.004C56.2682 367.93 56.2949 367.86 56.3482 367.794L58.6582 365.244C59.0182 364.857 59.2915 364.504 59.4782 364.184C59.6649 363.864 59.7582 363.547 59.7582 363.234C59.7582 362.934 59.6982 362.677 59.5782 362.464C59.4582 362.244 59.2815 362.074 59.0482 361.954C58.8149 361.834 58.5349 361.774 58.2082 361.774C57.9015 361.774 57.6149 361.85 57.3482 362.004C57.0882 362.15 56.8915 362.39 56.7582 362.724C56.7315 362.77 56.6949 362.814 56.6482 362.854C56.6082 362.887 56.5582 362.904 56.4982 362.904C56.4249 362.904 56.3549 362.877 56.2882 362.824C56.2215 362.77 56.1882 362.71 56.1882 362.644C56.1882 362.597 56.2015 362.55 56.2282 362.504C56.2549 362.457 56.2882 362.404 56.3282 362.344C56.5082 361.97 56.7715 361.687 57.1182 361.494C57.4715 361.3 57.8482 361.204 58.2482 361.204C58.7082 361.204 59.0949 361.29 59.4082 361.464C59.7282 361.63 59.9715 361.864 60.1382 362.164C60.3115 362.457 60.3982 362.8 60.3982 363.194C60.3982 363.434 60.3549 363.68 60.2682 363.934C60.1815 364.18 60.0449 364.444 59.8582 364.724C59.6715 365.004 59.4215 365.314 59.1082 365.654L57.1582 367.844L57.0582 367.724H60.3382ZM64.052 368.404C63.5187 368.404 63.072 368.244 62.712 367.924C62.352 367.604 62.082 367.174 61.902 366.634C61.722 366.087 61.632 365.477 61.632 364.804C61.632 364.124 61.722 363.514 61.902 362.974C62.082 362.427 62.352 361.997 62.712 361.684C63.072 361.364 63.5187 361.204 64.052 361.204C64.5987 361.204 65.0487 361.364 65.402 361.684C65.762 361.997 66.032 362.427 66.212 362.974C66.392 363.514 66.482 364.124 66.482 364.804C66.482 365.477 66.392 366.087 66.212 366.634C66.032 367.174 65.762 367.604 65.402 367.924C65.0487 368.244 64.5987 368.404 64.052 368.404ZM64.052 367.784C64.4454 367.784 64.772 367.66 65.032 367.414C65.2987 367.167 65.4987 366.82 65.632 366.374C65.772 365.92 65.842 365.397 65.842 364.804C65.842 364.204 65.772 363.68 65.632 363.234C65.4987 362.78 65.2987 362.43 65.032 362.184C64.772 361.937 64.4454 361.814 64.052 361.814C63.6654 361.814 63.3387 361.937 63.072 362.184C62.812 362.43 62.612 362.78 62.472 363.234C62.3387 363.68 62.272 364.204 62.272 364.804C62.272 365.397 62.3387 365.92 62.472 366.374C62.612 366.82 62.812 367.167 63.072 367.414C63.3387 367.66 63.6654 367.784 64.052 367.784Z" fill="black"/>
<path d="M2.26 276.304C2.16667 276.304 2.09 276.274 2.03 276.214C1.97 276.154 1.94 276.084 1.94 276.004V269.984L2.05 270.084L0.72 270.974C0.666667 271.014 0.61 271.034 0.55 271.034C0.47 271.034 0.396667 271 0.33 270.934C0.27 270.867 0.24 270.794 0.24 270.714C0.24 270.607 0.293333 270.524 0.4 270.464L2.07 269.354C2.11 269.327 2.15 269.31 2.19 269.304C2.23667 269.297 2.27667 269.297 2.31 269.304C2.39667 269.31 2.46333 269.344 2.51 269.404C2.55667 269.457 2.58 269.524 2.58 269.604V276.004C2.58 276.084 2.55 276.154 2.49 276.214C2.43 276.274 2.35333 276.304 2.26 276.304ZM6.67117 276.404C6.13784 276.404 5.69117 276.244 5.33117 275.924C4.97117 275.604 4.70117 275.174 4.52117 274.634C4.34117 274.087 4.25117 273.477 4.25117 272.804C4.25117 272.124 4.34117 271.514 4.52117 270.974C4.70117 270.427 4.97117 269.997 5.33117 269.684C5.69117 269.364 6.13784 269.204 6.67117 269.204C7.21784 269.204 7.66784 269.364 8.02117 269.684C8.38117 269.997 8.65117 270.427 8.83117 270.974C9.01117 271.514 9.10117 272.124 9.10117 272.804C9.10117 273.477 9.01117 274.087 8.83117 274.634C8.65117 275.174 8.38117 275.604 8.02117 275.924C7.66784 276.244 7.21784 276.404 6.67117 276.404ZM6.67117 275.784C7.06451 275.784 7.39117 275.66 7.65117 275.414C7.91784 275.167 8.11784 274.82 8.25117 274.374C8.39117 273.92 8.46117 273.397 8.46117 272.804C8.46117 272.204 8.39117 271.68 8.25117 271.234C8.11784 270.78 7.91784 270.43 7.65117 270.184C7.39117 269.937 7.06451 269.814 6.67117 269.814C6.28451 269.814 5.95784 269.937 5.69117 270.184C5.43117 270.43 5.23117 270.78 5.09117 271.234C4.95784 271.68 4.89117 272.204 4.89117 272.804C4.89117 273.397 4.95784 273.92 5.09117 274.374C5.23117 274.82 5.43117 275.167 5.69117 275.414C5.95784 275.66 6.28451 275.784 6.67117 275.784Z" fill="black"/>
<path d="M4.74 138.724C4.82 138.724 4.88667 138.754 4.94 138.814C5 138.867 5.03 138.934 5.03 139.014C5.03 139.1 5 139.17 4.94 139.224C4.88667 139.277 4.82 139.304 4.74 139.304H0.99C0.903333 139.304 0.826667 139.28 0.76 139.234C0.7 139.18 0.67 139.104 0.67 139.004C0.67 138.93 0.696667 138.86 0.75 138.794L3.06 136.244C3.42667 135.844 3.7 135.477 3.88 135.144C4.06667 134.804 4.16 134.5 4.16 134.234C4.16 133.794 4.02667 133.44 3.76 133.174C3.49333 132.907 3.13333 132.774 2.68 132.774C2.47333 132.774 2.26667 132.817 2.06 132.904C1.86 132.99 1.68 133.104 1.52 133.244C1.36667 133.384 1.24667 133.544 1.16 133.724C1.12 133.79 1.07667 133.837 1.03 133.864C0.99 133.89 0.943333 133.904 0.89 133.904C0.81 133.904 0.74 133.88 0.68 133.834C0.62 133.78 0.59 133.717 0.59 133.644C0.59 133.597 0.6 133.55 0.62 133.504C0.646667 133.457 0.683333 133.404 0.73 133.344C0.85 133.137 1.01667 132.947 1.23 132.774C1.44333 132.6 1.68 132.464 1.94 132.364C2.20667 132.257 2.46667 132.204 2.72 132.204C3.14667 132.204 3.51333 132.287 3.82 132.454C4.13333 132.614 4.37333 132.844 4.54 133.144C4.71333 133.437 4.8 133.787 4.8 134.194C4.8 134.54 4.69 134.92 4.47 135.334C4.25667 135.74 3.93667 136.18 3.51 136.654L1.56 138.844L1.46 138.724H4.74ZM8.50711 139.404C7.97378 139.404 7.52711 139.244 7.16711 138.924C6.80711 138.604 6.53711 138.174 6.35711 137.634C6.17711 137.087 6.08711 136.477 6.08711 135.804C6.08711 135.124 6.17711 134.514 6.35711 133.974C6.53711 133.427 6.80711 132.997 7.16711 132.684C7.52711 132.364 7.97378 132.204 8.50711 132.204C9.05378 132.204 9.50378 132.364 9.85711 132.684C10.2171 132.997 10.4871 133.427 10.6671 133.974C10.8471 134.514 10.9371 135.124 10.9371 135.804C10.9371 136.477 10.8471 137.087 10.6671 137.634C10.4871 138.174 10.2171 138.604 9.85711 138.924C9.50378 139.244 9.05378 139.404 8.50711 139.404ZM8.50711 138.784C8.90044 138.784 9.22711 138.66 9.48711 138.414C9.75378 138.167 9.95378 137.82 10.0871 137.374C10.2271 136.92 10.2971 136.397 10.2971 135.804C10.2971 135.204 10.2271 134.68 10.0871 134.234C9.95378 133.78 9.75378 133.43 9.48711 133.184C9.22711 132.937 8.90044 132.814 8.50711 132.814C8.12044 132.814 7.79378 132.937 7.52711 133.184C7.26711 133.43 7.06711 133.78 6.92711 134.234C6.79378 134.68 6.72711 135.204 6.72711 135.804C6.72711 136.397 6.79378 136.92 6.92711 137.374C7.06711 137.82 7.26711 138.167 7.52711 138.414C7.79378 138.66 8.12044 138.784 8.50711 138.784Z" fill="black"/>
<path d="M2.26 208.304C2.16667 208.304 2.09 208.274 2.03 208.214C1.97 208.154 1.94 208.084 1.94 208.004V201.984L2.05 202.084L0.72 202.974C0.666667 203.014 0.61 203.034 0.55 203.034C0.47 203.034 0.396667 203 0.33 202.934C0.27 202.867 0.24 202.794 0.24 202.714C0.24 202.607 0.293333 202.524 0.4 202.464L2.07 201.354C2.11 201.327 2.15 201.31 2.19 201.304C2.23667 201.297 2.27667 201.297 2.31 201.304C2.39667 201.31 2.46333 201.344 2.51 201.404C2.55667 201.457 2.58 201.524 2.58 201.604V208.004C2.58 208.084 2.55 208.154 2.49 208.214C2.43 208.274 2.35333 208.304 2.26 208.304ZM6.04117 208.324C5.76784 208.324 5.49117 208.28 5.21117 208.194C4.93784 208.1 4.69451 207.964 4.48117 207.784C4.44117 207.75 4.40784 207.71 4.38117 207.664C4.36117 207.617 4.35117 207.57 4.35117 207.524C4.35117 207.457 4.37784 207.394 4.43117 207.334C4.48451 207.267 4.55451 207.234 4.64117 207.234C4.71451 207.234 4.78784 207.264 4.86117 207.324C5.03451 207.457 5.22117 207.56 5.42117 207.634C5.62784 207.707 5.83451 207.744 6.04117 207.744C6.43451 207.744 6.77784 207.67 7.07117 207.524C7.36451 207.37 7.59117 207.157 7.75117 206.884C7.91117 206.604 7.99117 206.28 7.99117 205.914C7.99117 205.574 7.91784 205.28 7.77117 205.034C7.62451 204.78 7.41451 204.584 7.14117 204.444C6.87451 204.297 6.55784 204.224 6.19117 204.224C5.95117 204.224 5.73117 204.26 5.53117 204.334C5.33784 204.407 5.16784 204.484 5.02117 204.564C4.88117 204.637 4.76784 204.674 4.68117 204.674C4.60117 204.674 4.53451 204.654 4.48117 204.614C4.43451 204.574 4.40117 204.524 4.38117 204.464C4.36784 204.404 4.36784 204.34 4.38117 204.274L4.81117 201.604C4.81784 201.544 4.84784 201.49 4.90117 201.444C4.96117 201.39 5.03451 201.364 5.12117 201.364H8.13117C8.21117 201.364 8.27784 201.394 8.33117 201.454C8.39117 201.507 8.42117 201.574 8.42117 201.654C8.42117 201.74 8.39117 201.814 8.33117 201.874C8.27784 201.927 8.21117 201.954 8.13117 201.954H5.26117L5.35117 201.864L4.94117 204.234L4.76117 204.104C4.84784 204.037 4.97117 203.97 5.13117 203.904C5.29784 203.837 5.48117 203.78 5.68117 203.734C5.88784 203.68 6.10451 203.654 6.33117 203.654C6.76451 203.654 7.15117 203.75 7.49117 203.944C7.83117 204.13 8.09784 204.394 8.29117 204.734C8.49117 205.067 8.59117 205.454 8.59117 205.894C8.59117 206.38 8.48451 206.807 8.27117 207.174C8.06451 207.534 7.77117 207.817 7.39117 208.024C7.01117 208.224 6.56117 208.324 6.04117 208.324Z" fill="black"/>
<path d="M4.74 70.7237C4.82 70.7237 4.88667 70.7537 4.94 70.8137C5 70.867 5.03 70.9337 5.03 71.0137C5.03 71.1004 5 71.1704 4.94 71.2237C4.88667 71.277 4.82 71.3037 4.74 71.3037H0.99C0.903333 71.3037 0.826667 71.2804 0.76 71.2337C0.7 71.1804 0.67 71.1037 0.67 71.0037C0.67 70.9304 0.696667 70.8604 0.75 70.7937L3.06 68.2437C3.42667 67.8437 3.7 67.477 3.88 67.1437C4.06667 66.8037 4.16 66.5004 4.16 66.2337C4.16 65.7937 4.02667 65.4404 3.76 65.1737C3.49333 64.907 3.13333 64.7737 2.68 64.7737C2.47333 64.7737 2.26667 64.817 2.06 64.9037C1.86 64.9904 1.68 65.1037 1.52 65.2437C1.36667 65.3837 1.24667 65.5437 1.16 65.7237C1.12 65.7904 1.07667 65.837 1.03 65.8637C0.99 65.8904 0.943333 65.9037 0.89 65.9037C0.81 65.9037 0.74 65.8804 0.68 65.8337C0.62 65.7804 0.59 65.717 0.59 65.6437C0.59 65.597 0.6 65.5504 0.62 65.5037C0.646667 65.457 0.683333 65.4037 0.73 65.3437C0.85 65.137 1.01667 64.947 1.23 64.7737C1.44333 64.6004 1.68 64.4637 1.94 64.3637C2.20667 64.257 2.46667 64.2037 2.72 64.2037C3.14667 64.2037 3.51333 64.287 3.82 64.4537C4.13333 64.6137 4.37333 64.8437 4.54 65.1437C4.71333 65.437 4.8 65.787 4.8 66.1937C4.8 66.5404 4.69 66.9204 4.47 67.3337C4.25667 67.7404 3.93667 68.1804 3.51 68.6537L1.56 70.8437L1.46 70.7237H4.74ZM7.87711 71.3237C7.60378 71.3237 7.32711 71.2804 7.04711 71.1937C6.77378 71.1004 6.53044 70.9637 6.31711 70.7837C6.27711 70.7504 6.24378 70.7104 6.21711 70.6637C6.19711 70.617 6.18711 70.5704 6.18711 70.5237C6.18711 70.457 6.21378 70.3937 6.26711 70.3337C6.32044 70.267 6.39044 70.2337 6.47711 70.2337C6.55044 70.2337 6.62378 70.2637 6.69711 70.3237C6.87044 70.457 7.05711 70.5604 7.25711 70.6337C7.46378 70.707 7.67044 70.7437 7.87711 70.7437C8.27044 70.7437 8.61378 70.6704 8.90711 70.5237C9.20044 70.3704 9.42711 70.157 9.58711 69.8837C9.74711 69.6037 9.82711 69.2804 9.82711 68.9137C9.82711 68.5737 9.75378 68.2804 9.60711 68.0337C9.46044 67.7804 9.25044 67.5837 8.97711 67.4437C8.71044 67.297 8.39378 67.2237 8.02711 67.2237C7.78711 67.2237 7.56711 67.2604 7.36711 67.3337C7.17378 67.407 7.00378 67.4837 6.85711 67.5637C6.71711 67.637 6.60378 67.6737 6.51711 67.6737C6.43711 67.6737 6.37044 67.6537 6.31711 67.6137C6.27044 67.5737 6.23711 67.5237 6.21711 67.4637C6.20378 67.4037 6.20378 67.3404 6.21711 67.2737L6.64711 64.6037C6.65378 64.5437 6.68378 64.4904 6.73711 64.4437C6.79711 64.3904 6.87044 64.3637 6.95711 64.3637H9.96711C10.0471 64.3637 10.1138 64.3937 10.1671 64.4537C10.2271 64.507 10.2571 64.5737 10.2571 64.6537C10.2571 64.7404 10.2271 64.8137 10.1671 64.8737C10.1138 64.927 10.0471 64.9537 9.96711 64.9537H7.09711L7.18711 64.8637L6.77711 67.2337L6.59711 67.1037C6.68378 67.037 6.80711 66.9704 6.96711 66.9037C7.13378 66.837 7.31711 66.7804 7.51711 66.7337C7.72378 66.6804 7.94044 66.6537 8.16711 66.6537C8.60044 66.6537 8.98711 66.7504 9.32711 66.9437C9.66711 67.1304 9.93378 67.3937 10.1271 67.7337C10.3271 68.067 10.4271 68.4537 10.4271 68.8937C10.4271 69.3804 10.3204 69.807 10.1071 70.1737C9.90044 70.5337 9.60711 70.817 9.22711 71.0237C8.84711 71.2237 8.39711 71.3237 7.87711 71.3237Z" fill="black"/>
<path d="M0.89 9.27371C0.923333 9.27371 0.956667 9.28038 0.99 9.29371C1.03 9.30704 1.07667 9.33704 1.13 9.38371C1.27 9.53038 1.43667 9.64371 1.63 9.72371C1.82333 9.79704 2.04333 9.83371 2.29 9.83371C2.61667 9.83371 2.91333 9.76038 3.18 9.61371C3.45333 9.46704 3.67 9.26371 3.83 9.00371C3.99 8.73704 4.07 8.43371 4.07 8.09371C4.07 7.70704 3.98333 7.39704 3.81 7.16371C3.64333 6.92371 3.42667 6.74704 3.16 6.63371C2.9 6.51371 2.63333 6.45371 2.36 6.45371C2.28667 6.45371 2.21333 6.46038 2.14 6.47371C2.07333 6.48038 2.01 6.49038 1.95 6.50371C1.89 6.51704 1.84333 6.52371 1.81 6.52371C1.72333 6.52371 1.65667 6.49704 1.61 6.44371C1.56333 6.38371 1.54 6.31038 1.54 6.22371C1.54 6.17704 1.55 6.13704 1.57 6.10371C1.59 6.06371 1.61667 6.02038 1.65 5.97371L3.68 3.76371L3.8 3.92371H0.77C0.69 3.92371 0.62 3.89704 0.56 3.84371C0.506667 3.78371 0.48 3.71371 0.48 3.63371C0.48 3.55371 0.506667 3.48704 0.56 3.43371C0.62 3.38038 0.69 3.35371 0.77 3.35371H4.13C4.24333 3.35371 4.32333 3.39038 4.37 3.46371C4.41667 3.53038 4.44 3.59704 4.44 3.66371C4.44 3.70371 4.43 3.74371 4.41 3.78371C4.39 3.81704 4.36333 3.85371 4.33 3.89371L2.3 6.10371L2.08 5.97371C2.1 5.95371 2.16667 5.93371 2.28 5.91371C2.4 5.88704 2.49333 5.87371 2.56 5.87371C2.92667 5.87371 3.27 5.96038 3.59 6.13371C3.91667 6.30704 4.18 6.55704 4.38 6.88371C4.58667 7.20371 4.69 7.60038 4.69 8.07371C4.69 8.54038 4.58 8.95038 4.36 9.30371C4.14 9.65038 3.84333 9.92038 3.47 10.1137C3.09667 10.307 2.68333 10.4037 2.23 10.4037C1.95667 10.4037 1.68667 10.357 1.42 10.2637C1.15333 10.1704 0.92 10.0304 0.72 9.84371C0.673333 9.80371 0.64 9.76371 0.62 9.72371C0.6 9.68371 0.59 9.64371 0.59 9.60371C0.59 9.52371 0.616667 9.45038 0.67 9.38371C0.73 9.31038 0.803333 9.27371 0.89 9.27371ZM8.21414 10.4037C7.68081 10.4037 7.23414 10.2437 6.87414 9.92371C6.51414 9.60371 6.24414 9.17371 6.06414 8.63371C5.88414 8.08704 5.79414 7.47704 5.79414 6.80371C5.79414 6.12371 5.88414 5.51371 6.06414 4.97371C6.24414 4.42704 6.51414 3.99704 6.87414 3.68371C7.23414 3.36371 7.68081 3.20371 8.21414 3.20371C8.76081 3.20371 9.21081 3.36371 9.56414 3.68371C9.92414 3.99704 10.1941 4.42704 10.3741 4.97371C10.5541 5.51371 10.6441 6.12371 10.6441 6.80371C10.6441 7.47704 10.5541 8.08704 10.3741 8.63371C10.1941 9.17371 9.92414 9.60371 9.56414 9.92371C9.21081 10.2437 8.76081 10.4037 8.21414 10.4037ZM8.21414 9.78371C8.60747 9.78371 8.93414 9.66038 9.19414 9.41371C9.46081 9.16704 9.66081 8.82038 9.79414 8.37371C9.93414 7.92038 10.0041 7.39704 10.0041 6.80371C10.0041 6.20371 9.93414 5.68038 9.79414 5.23371C9.66081 4.78038 9.46081 4.43038 9.19414 4.18371C8.93414 3.93704 8.60747 3.81371 8.21414 3.81371C7.82747 3.81371 7.50081 3.93704 7.23414 4.18371C6.97414 4.43038 6.77414 4.78038 6.63414 5.23371C6.50081 5.68038 6.43414 6.20371 6.43414 6.80371C6.43414 7.39704 6.50081 7.92038 6.63414 8.37371C6.77414 8.82038 6.97414 9.16704 7.23414 9.41371C7.50081 9.66038 7.82747 9.78371 8.21414 9.78371Z" fill="black"/>
<path d="M1414.71 367.724C1414.79 367.724 1414.86 367.754 1414.91 367.814C1414.97 367.867 1415 367.934 1415 368.014C1415 368.1 1414.97 368.17 1414.91 368.224C1414.86 368.277 1414.79 368.304 1414.71 368.304H1410.96C1410.88 368.304 1410.8 368.28 1410.73 368.234C1410.67 368.18 1410.64 368.104 1410.64 368.004C1410.64 367.93 1410.67 367.86 1410.72 367.794L1413.03 365.244C1413.4 364.844 1413.67 364.477 1413.85 364.144C1414.04 363.804 1414.13 363.5 1414.13 363.234C1414.13 362.794 1414 362.44 1413.73 362.174C1413.47 361.907 1413.11 361.774 1412.65 361.774C1412.45 361.774 1412.24 361.817 1412.03 361.904C1411.83 361.99 1411.65 362.104 1411.49 362.244C1411.34 362.384 1411.22 362.544 1411.13 362.724C1411.09 362.79 1411.05 362.837 1411 362.864C1410.96 362.89 1410.92 362.904 1410.86 362.904C1410.78 362.904 1410.71 362.88 1410.65 362.834C1410.59 362.78 1410.56 362.717 1410.56 362.644C1410.56 362.597 1410.57 362.55 1410.59 362.504C1410.62 362.457 1410.66 362.404 1410.7 362.344C1410.82 362.137 1410.99 361.947 1411.2 361.774C1411.42 361.6 1411.65 361.464 1411.91 361.364C1412.18 361.257 1412.44 361.204 1412.69 361.204C1413.12 361.204 1413.49 361.287 1413.79 361.454C1414.11 361.614 1414.35 361.844 1414.51 362.144C1414.69 362.437 1414.77 362.787 1414.77 363.194C1414.77 363.54 1414.66 363.92 1414.44 364.334C1414.23 364.74 1413.91 365.18 1413.48 365.654L1411.53 367.844L1411.43 367.724H1414.71ZM1418.48 368.404C1417.95 368.404 1417.5 368.244 1417.14 367.924C1416.78 367.604 1416.51 367.174 1416.33 366.634C1416.15 366.087 1416.06 365.477 1416.06 364.804C1416.06 364.124 1416.15 363.514 1416.33 362.974C1416.51 362.427 1416.78 361.997 1417.14 361.684C1417.5 361.364 1417.95 361.204 1418.48 361.204C1419.03 361.204 1419.48 361.364 1419.83 361.684C1420.19 361.997 1420.46 362.427 1420.64 362.974C1420.82 363.514 1420.91 364.124 1420.91 364.804C1420.91 365.477 1420.82 366.087 1420.64 366.634C1420.46 367.174 1420.19 367.604 1419.83 367.924C1419.48 368.244 1419.03 368.404 1418.48 368.404ZM1418.48 367.784C1418.87 367.784 1419.2 367.66 1419.46 367.414C1419.73 367.167 1419.93 366.82 1420.06 366.374C1420.2 365.92 1420.27 365.397 1420.27 364.804C1420.27 364.204 1420.2 363.68 1420.06 363.234C1419.93 362.78 1419.73 362.43 1419.46 362.184C1419.2 361.937 1418.87 361.814 1418.48 361.814C1418.09 361.814 1417.77 361.937 1417.5 362.184C1417.24 362.43 1417.04 362.78 1416.9 363.234C1416.77 363.68 1416.7 364.204 1416.7 364.804C1416.7 365.397 1416.77 365.92 1416.9 366.374C1417.04 366.82 1417.24 367.167 1417.5 367.414C1417.77 367.66 1418.09 367.784 1418.48 367.784ZM1426.2 367.724C1426.28 367.724 1426.34 367.754 1426.4 367.814C1426.46 367.867 1426.49 367.934 1426.49 368.014C1426.49 368.1 1426.46 368.17 1426.4 368.224C1426.34 368.277 1426.28 368.304 1426.2 368.304H1422.45C1422.36 368.304 1422.28 368.28 1422.22 368.234C1422.16 368.18 1422.13 368.104 1422.13 368.004C1422.13 367.93 1422.15 367.86 1422.21 367.794L1424.52 365.244C1424.88 364.844 1425.16 364.477 1425.34 364.144C1425.52 363.804 1425.62 363.5 1425.62 363.234C1425.62 362.794 1425.48 362.44 1425.22 362.174C1424.95 361.907 1424.59 361.774 1424.14 361.774C1423.93 361.774 1423.72 361.817 1423.52 361.904C1423.32 361.99 1423.14 362.104 1422.98 362.244C1422.82 362.384 1422.7 362.544 1422.62 362.724C1422.58 362.79 1422.53 362.837 1422.49 362.864C1422.45 362.89 1422.4 362.904 1422.35 362.904C1422.27 362.904 1422.2 362.88 1422.14 362.834C1422.08 362.78 1422.05 362.717 1422.05 362.644C1422.05 362.597 1422.06 362.55 1422.08 362.504C1422.1 362.457 1422.14 362.404 1422.19 362.344C1422.31 362.137 1422.47 361.947 1422.69 361.774C1422.9 361.6 1423.14 361.464 1423.4 361.364C1423.66 361.257 1423.92 361.204 1424.18 361.204C1424.6 361.204 1424.97 361.287 1425.28 361.454C1425.59 361.614 1425.83 361.844 1426 362.144C1426.17 362.437 1426.26 362.787 1426.26 363.194C1426.26 363.54 1426.15 363.92 1425.93 364.334C1425.71 364.74 1425.39 365.18 1424.97 365.654L1423.02 367.844L1422.92 367.724H1426.2ZM1431.73 367.724C1431.81 367.724 1431.88 367.754 1431.93 367.814C1431.99 367.867 1432.02 367.934 1432.02 368.014C1432.02 368.1 1431.99 368.17 1431.93 368.224C1431.88 368.277 1431.81 368.304 1431.73 368.304H1427.98C1427.9 368.304 1427.82 368.28 1427.75 368.234C1427.69 368.18 1427.66 368.104 1427.66 368.004C1427.66 367.93 1427.69 367.86 1427.74 367.794L1430.05 365.244C1430.42 364.844 1430.69 364.477 1430.87 364.144C1431.06 363.804 1431.15 363.5 1431.15 363.234C1431.15 362.794 1431.02 362.44 1430.75 362.174C1430.49 361.907 1430.13 361.774 1429.67 361.774C1429.47 361.774 1429.26 361.817 1429.05 361.904C1428.85 361.99 1428.67 362.104 1428.51 362.244C1428.36 362.384 1428.24 362.544 1428.15 362.724C1428.11 362.79 1428.07 362.837 1428.02 362.864C1427.98 362.89 1427.94 362.904 1427.88 362.904C1427.8 362.904 1427.73 362.88 1427.67 362.834C1427.61 362.78 1427.58 362.717 1427.58 362.644C1427.58 362.597 1427.59 362.55 1427.61 362.504C1427.64 362.457 1427.68 362.404 1427.72 362.344C1427.84 362.137 1428.01 361.947 1428.22 361.774C1428.44 361.6 1428.67 361.464 1428.93 361.364C1429.2 361.257 1429.46 361.204 1429.71 361.204C1430.14 361.204 1430.51 361.287 1430.81 361.454C1431.13 361.614 1431.37 361.844 1431.53 362.144C1431.71 362.437 1431.79 362.787 1431.79 363.194C1431.79 363.54 1431.68 363.92 1431.46 364.334C1431.25 364.74 1430.93 365.18 1430.5 365.654L1428.55 367.844L1428.45 367.724H1431.73Z" fill="black"/>
<path d="M731.621 367.724C731.701 367.724 731.768 367.754 731.821 367.814C731.881 367.867 731.911 367.934 731.911 368.014C731.911 368.1 731.881 368.17 731.821 368.224C731.768 368.277 731.701 368.304 731.621 368.304H727.871C727.784 368.304 727.708 368.28 727.641 368.234C727.581 368.18 727.551 368.104 727.551 368.004C727.551 367.93 727.578 367.86 727.631 367.794L729.941 365.244C730.308 364.844 730.581 364.477 730.761 364.144C730.948 363.804 731.041 363.5 731.041 363.234C731.041 362.794 730.908 362.44 730.641 362.174C730.374 361.907 730.014 361.774 729.561 361.774C729.354 361.774 729.148 361.817 728.941 361.904C728.741 361.99 728.561 362.104 728.401 362.244C728.248 362.384 728.128 362.544 728.041 362.724C728.001 362.79 727.958 362.837 727.911 362.864C727.871 362.89 727.824 362.904 727.771 362.904C727.691 362.904 727.621 362.88 727.561 362.834C727.501 362.78 727.471 362.717 727.471 362.644C727.471 362.597 727.481 362.55 727.501 362.504C727.528 362.457 727.564 362.404 727.611 362.344C727.731 362.137 727.898 361.947 728.111 361.774C728.324 361.6 728.561 361.464 728.821 361.364C729.088 361.257 729.348 361.204 729.601 361.204C730.028 361.204 730.394 361.287 730.701 361.454C731.014 361.614 731.254 361.844 731.421 362.144C731.594 362.437 731.681 362.787 731.681 363.194C731.681 363.54 731.571 363.92 731.351 364.334C731.138 364.74 730.818 365.18 730.391 365.654L728.441 367.844L728.341 367.724H731.621ZM735.388 368.404C734.855 368.404 734.408 368.244 734.048 367.924C733.688 367.604 733.418 367.174 733.238 366.634C733.058 366.087 732.968 365.477 732.968 364.804C732.968 364.124 733.058 363.514 733.238 362.974C733.418 362.427 733.688 361.997 734.048 361.684C734.408 361.364 734.855 361.204 735.388 361.204C735.935 361.204 736.385 361.364 736.738 361.684C737.098 361.997 737.368 362.427 737.548 362.974C737.728 363.514 737.818 364.124 737.818 364.804C737.818 365.477 737.728 366.087 737.548 366.634C737.368 367.174 737.098 367.604 736.738 367.924C736.385 368.244 735.935 368.404 735.388 368.404ZM735.388 367.784C735.781 367.784 736.108 367.66 736.368 367.414C736.635 367.167 736.835 366.82 736.968 366.374C737.108 365.92 737.178 365.397 737.178 364.804C737.178 364.204 737.108 363.68 736.968 363.234C736.835 362.78 736.635 362.43 736.368 362.184C736.108 361.937 735.781 361.814 735.388 361.814C735.001 361.814 734.675 361.937 734.408 362.184C734.148 362.43 733.948 362.78 733.808 363.234C733.675 363.68 733.608 364.204 733.608 364.804C733.608 365.397 733.675 365.92 733.808 366.374C733.948 366.82 734.148 367.167 734.408 367.414C734.675 367.66 735.001 367.784 735.388 367.784ZM743.105 367.724C743.185 367.724 743.252 367.754 743.305 367.814C743.365 367.867 743.395 367.934 743.395 368.014C743.395 368.1 743.365 368.17 743.305 368.224C743.252 368.277 743.185 368.304 743.105 368.304H739.355C739.269 368.304 739.192 368.28 739.125 368.234C739.065 368.18 739.035 368.104 739.035 368.004C739.035 367.93 739.062 367.86 739.115 367.794L741.425 365.244C741.792 364.844 742.065 364.477 742.245 364.144C742.432 363.804 742.525 363.5 742.525 363.234C742.525 362.794 742.392 362.44 742.125 362.174C741.859 361.907 741.499 361.774 741.045 361.774C740.839 361.774 740.632 361.817 740.425 361.904C740.225 361.99 740.045 362.104 739.885 362.244C739.732 362.384 739.612 362.544 739.525 362.724C739.485 362.79 739.442 362.837 739.395 362.864C739.355 362.89 739.309 362.904 739.255 362.904C739.175 362.904 739.105 362.88 739.045 362.834C738.985 362.78 738.955 362.717 738.955 362.644C738.955 362.597 738.965 362.55 738.985 362.504C739.012 362.457 739.049 362.404 739.095 362.344C739.215 362.137 739.382 361.947 739.595 361.774C739.809 361.6 740.045 361.464 740.305 361.364C740.572 361.257 740.832 361.204 741.085 361.204C741.512 361.204 741.879 361.287 742.185 361.454C742.499 361.614 742.739 361.844 742.905 362.144C743.079 362.437 743.165 362.787 743.165 363.194C743.165 363.54 743.055 363.92 742.835 364.334C742.622 364.74 742.302 365.18 741.875 365.654L739.925 367.844L739.825 367.724H743.105ZM746.162 368.304C746.069 368.304 745.992 368.274 745.932 368.214C745.872 368.154 745.842 368.084 745.842 368.004V361.984L745.952 362.084L744.622 362.974C744.569 363.014 744.512 363.034 744.452 363.034C744.372 363.034 744.299 363 744.232 362.934C744.172 362.867 744.142 362.794 744.142 362.714C744.142 362.607 744.196 362.524 744.302 362.464L745.972 361.354C746.012 361.327 746.052 361.31 746.092 361.304C746.139 361.297 746.179 361.297 746.212 361.304C746.299 361.31 746.366 361.344 746.412 361.404C746.459 361.457 746.482 361.524 746.482 361.604V368.004C746.482 368.084 746.452 368.154 746.392 368.214C746.332 368.274 746.256 368.304 746.162 368.304Z" fill="black"/>
<rect x="544.943" y="240.304" width="7.73066" height="8" fill="white" stroke="#CE2B2C" stroke-width="2"/>
<rect x="310.436" y="284.304" width="7.73066" height="8" fill="white" stroke="#CE2B2C" stroke-width="2"/>
<rect x="875.787" y="185.304" width="7.73066" height="8" fill="white" stroke="#CE2B2C" stroke-width="2"/>
<rect x="1199.82" y="118.304" width="7.73066" height="8" fill="white" stroke="#CE2B2C" stroke-width="2"/>
</svg>
