<svg width="218" height="64" viewBox="0 0 218 64" fill="none" xmlns="http://www.w3.org/2000/svg">
<path d="M1.44727 1.45209H14.7774C18.0462 1.45209 20.3498 2.25583 21.8704 3.75575C22.4206 4.29528 22.8528 4.93996 23.1404 5.6501C23.428 6.36024 23.5649 7.12082 23.5427 7.88501V7.95672C23.5427 10.9207 21.834 12.6746 19.5303 13.6606C22.6868 14.6854 24.69 16.4393 24.69 19.9113V19.986C24.69 24.3722 21.0479 27.0404 14.8502 27.0404H1.44727V1.45209ZM12.9958 11.6438C15.1871 11.6438 16.4133 10.9147 16.4133 9.41481V9.34011C16.4133 7.95074 15.2994 7.147 13.1445 7.147H8.46743V11.6438H12.9958ZM14.0368 21.3305C16.2281 21.3305 17.4907 20.4909 17.4907 18.991V18.9193C17.4907 17.5299 16.3769 16.6156 13.9609 16.6156H8.46743V21.3305H14.0368Z" fill="white"/>
<path d="M27.6621 15.8268V1.45209H34.9767V15.6715C34.9767 19.3645 36.8706 21.1184 39.766 21.1184C42.6615 21.1184 44.5554 19.4362 44.5554 15.8537V1.45209H51.873V15.6356C51.873 23.8971 47.0806 27.5154 39.6932 27.5154C32.3058 27.5154 27.6621 23.8224 27.6621 15.8268Z" fill="white"/>
<path d="M56.1465 1.45209H68.4356C72.4085 1.45209 75.1583 2.47395 76.9035 4.23082C78.421 5.6919 79.2041 7.6669 79.2041 10.1887V10.2604C79.2041 14.1715 77.0795 16.768 73.8562 18.1215L80.06 27.0404H71.7408L66.5113 19.2898H63.3548V27.0404H56.1465V1.45209ZM68.1017 13.7353C70.5541 13.7353 71.9654 12.564 71.9654 10.6996V10.6279C71.9654 8.61705 70.4782 7.5922 68.0653 7.5922H63.3488V13.7353H68.1017Z" fill="white"/>
<path d="M81.9531 14.3329V14.2612C81.9531 6.79146 87.8928 0.953125 95.951 0.953125C100.504 0.953125 103.748 2.34249 106.498 4.68201L102.249 9.68971C100.391 8.15693 98.5338 7.27848 95.9722 7.27848C92.2239 7.27848 89.3254 10.3859 89.3254 14.297V14.3717C89.3254 18.501 92.2603 21.462 96.3819 21.462C98.1271 21.462 99.4626 21.0975 100.54 20.4013V17.2939H95.432V12.089H107.387V23.5953C104.21 26.1717 100.216 27.5686 96.0997 27.5423C88.0051 27.5513 81.9531 22.0685 81.9531 14.3329Z" fill="white"/>
<path d="M7.79715 43.4499H0V37.238H22.8057V43.4499H15.0025V62.8263H7.79715V43.4499Z" fill="white"/>
<path d="M25.957 37.238H38.2491C42.2221 37.238 44.9688 38.2599 46.714 40.0138C48.2316 41.4779 49.0176 43.4499 49.0176 45.9746V46.0463C49.0176 49.9575 46.8931 52.554 43.6698 53.9075L49.8705 62.8263H41.5513L36.3158 55.0757H33.1593V62.8263H25.957V37.238ZM37.9123 49.5183C40.3646 49.5183 41.7759 48.35 41.7759 46.4855V46.4138C41.7759 44.403 40.2887 43.3781 37.8758 43.3781H33.1593V49.5183H37.9123Z" fill="white"/>
<path d="M52.6523 37.238H73.5611V43.2676H59.7848V47.1518H72.259V52.7452H59.7848V56.8027H73.7462V62.8263H52.6523V37.238Z" fill="white"/>
<path d="M77.0879 51.6038V37.238H84.4176V51.4574C84.4176 55.1504 86.3115 56.9043 89.207 56.9043C92.1025 56.9043 93.9964 55.2221 93.9964 51.6397V37.238H101.314V51.4215C101.314 59.6831 96.5216 63.3014 89.1342 63.3014C81.7468 63.3014 77.0879 59.6084 77.0879 51.6038Z" fill="white"/>
<path d="M105.57 37.238H112.773V46.7993H122.017V37.238H129.223V62.8263H122.017V53.1007H112.773V62.8263H105.57V37.238Z" fill="white"/>
<path d="M142.814 37.0408H149.758L160.821 62.8144H153.099L151.206 58.2548H141.175L139.32 62.8263H131.732L142.814 37.0408ZM149.127 52.7243L146.228 45.4488L143.299 52.7362L149.127 52.7243Z" fill="white"/>
<path d="M163.346 37.238H170.068L180.761 50.7612V37.238H187.89V62.8263H181.577L170.475 48.7832V62.8263H163.346V37.238Z" fill="white"/>
<path d="M192.495 37.238H202.51C211.792 37.238 217.176 42.4997 217.176 49.8858V49.9575C217.176 57.3435 211.713 62.8263 202.362 62.8263H192.482L192.495 37.238ZM202.632 56.5368C206.942 56.5368 209.801 54.1973 209.801 50.068V49.9933C209.801 45.8999 206.942 43.5246 202.632 43.5246H199.7V56.5368H202.632Z" fill="white"/>
</svg>
