<svg width="218" height="65" viewBox="0 0 218 65" fill="none" xmlns="http://www.w3.org/2000/svg">
<path d="M1.44775 1.18927H14.7779C18.0467 1.18927 20.3503 2.00804 21.8709 3.53599C22.4211 4.0856 22.8533 4.74233 23.1409 5.46574C23.4285 6.18916 23.5654 6.96395 23.5432 7.74242V7.81548C23.5432 10.8349 21.8344 12.6215 19.5308 13.626C22.6873 14.67 24.6905 16.4566 24.6905 19.9935V20.0695C24.6905 24.5377 21.0484 27.2558 14.8507 27.2558H1.44775V1.18927ZM12.9963 11.5714C15.1876 11.5714 16.4138 10.8288 16.4138 9.30081V9.22472C16.4138 7.80939 15.2999 6.99062 13.145 6.99062H8.46792V11.5714H12.9963ZM14.0373 21.4392C16.2286 21.4392 17.4912 20.5839 17.4912 19.056V18.9829C17.4912 17.5676 16.3774 16.6362 13.9614 16.6362H8.46792V21.4392H14.0373Z" fill="#191C3D"/>
<path d="M27.6619 15.8327V1.18927H34.9764V15.6744C34.9764 19.4364 36.8703 21.2231 39.7658 21.2231C42.6613 21.2231 44.5552 19.5095 44.5552 15.8601V1.18927H51.8728V15.6379C51.8728 24.0538 47.0804 27.7397 39.693 27.7397C32.3056 27.7397 27.6619 23.9777 27.6619 15.8327Z" fill="#191C3D"/>
<path d="M56.1461 1.18927H68.4352C72.4081 1.18927 75.1579 2.23023 76.9031 4.01994C78.4206 5.50833 79.2037 7.52023 79.2037 10.0891V10.1622C79.2037 14.1464 77.0791 16.7914 73.8559 18.1702L80.0596 27.2558H71.7404L66.511 19.3603H63.3545V27.2558H56.1461V1.18927ZM68.1013 13.7021C70.5537 13.7021 71.965 12.5089 71.965 10.6096V10.5366C71.965 8.48814 70.4778 7.44414 68.0649 7.44414H63.3484V13.7021H68.1013Z" fill="#191C3D"/>
<path d="M81.9535 14.3108V14.2377C81.9535 6.62842 87.8932 0.680969 95.9513 0.680969C100.504 0.680969 103.748 2.0963 106.498 4.47955L102.249 9.58084C100.392 8.01941 98.5342 7.12455 95.9726 7.12455C92.2242 7.12455 89.3257 10.29 89.3257 14.2743V14.3504C89.3257 18.5568 92.2607 21.5731 96.3823 21.5731C98.1275 21.5731 99.4629 21.2018 100.54 20.4926V17.3271H95.4323V12.025H107.388V23.7464C104.211 26.3709 100.216 27.7939 96.1 27.7671C88.0055 27.7763 81.9535 22.191 81.9535 14.3108Z" fill="#191C3D"/>
<path d="M7.79715 43.972H0V37.644H22.8057V43.972H15.0025V63.7106H7.79715V43.972Z" fill="#191C3D"/>
<path d="M25.9561 37.644H38.2482C42.2211 37.644 44.9679 38.685 46.713 40.4717C48.2306 41.9631 49.0167 43.972 49.0167 46.5439V46.617C49.0167 50.6012 46.8921 53.2462 43.6688 54.625L49.8695 63.7106H41.5503L36.3148 55.8151H33.1583V63.7106H25.9561V37.644ZM37.9113 50.1538C40.3636 50.1538 41.7749 48.9637 41.7749 47.0644V46.9913C41.7749 44.9429 40.2878 43.8989 37.8749 43.8989H33.1583V50.1538H37.9113Z" fill="#191C3D"/>
<path d="M52.6528 37.644H73.5616V43.7863H59.7853V47.7431H72.2595V53.441H59.7853V57.5744H73.7467V63.7106H52.6528V37.644Z" fill="#191C3D"/>
<path d="M77.0881 52.2783V37.644H84.4179V52.1292C84.4179 55.8912 86.3118 57.6779 89.2073 57.6779C92.1027 57.6779 93.9966 55.9643 93.9966 52.3148V37.644H101.314V52.0926C101.314 60.5086 96.5218 64.1945 89.1344 64.1945C81.747 64.1945 77.0881 60.4325 77.0881 52.2783Z" fill="#191C3D"/>
<path d="M105.57 37.644H112.772V47.384H122.017V37.644H129.222V63.7106H122.017V53.8032H112.772V63.7106H105.57V37.644Z" fill="#191C3D"/>
<path d="M142.813 37.4431H149.757L160.82 63.6984H153.099L151.205 59.0536H141.174L139.32 63.7105H131.732L142.813 37.4431ZM149.126 53.4197L146.228 46.0082L143.299 53.4319L149.126 53.4197Z" fill="#191C3D"/>
<path d="M163.345 37.644H170.068L180.761 51.42V37.644H187.89V63.7106H181.577L170.475 49.405V63.7106H163.345V37.644Z" fill="#191C3D"/>
<path d="M192.495 37.644H202.51C211.792 37.644 217.176 43.0041 217.176 50.5282V50.6012C217.176 58.1253 211.713 63.7106 202.362 63.7106H192.482L192.495 37.644ZM202.632 57.3035C206.942 57.3035 209.801 54.9203 209.801 50.7138V50.6377C209.801 46.4678 206.942 44.0481 202.632 44.0481H199.7V57.3035H202.632Z" fill="#191C3D"/>
</svg>
